<svg width="25" height="25" viewBox="0 0 25 25" fill="none" xmlns="http://www.w3.org/2000/svg">
<path d="M5.85249 20.4156C5.24249 20.4156 4.67249 20.2056 4.26249 19.8156C3.74249 19.3256 3.49249 18.5856 3.58249 17.7856L3.95249 14.5456C4.02249 13.9356 4.39249 13.1256 4.82249 12.6856L13.0325 3.99556C15.0825 1.82556 17.2225 1.76556 19.3925 3.81556C21.5625 5.86556 21.6225 8.00556 19.5725 10.1756L11.3625 18.8656C10.9425 19.3156 10.1625 19.7356 9.55249 19.8356L6.33249 20.3856C6.16249 20.3956 6.01249 20.4156 5.85249 20.4156ZM16.2425 3.80556C15.4725 3.80556 14.8025 4.28556 14.1225 5.00556L5.91249 13.7056C5.71249 13.9156 5.48249 14.4156 5.44249 14.7056L5.07249 17.9456C5.03249 18.2756 5.11249 18.5456 5.29249 18.7156C5.47249 18.8856 5.74249 18.9456 6.07249 18.8956L9.29249 18.3456C9.58249 18.2956 10.0625 18.0356 10.2625 17.8256L18.4725 9.13556C19.7125 7.81556 20.1625 6.59556 18.3525 4.89556C17.5525 4.12556 16.8625 3.80556 16.2425 3.80556Z" fill="#5F33E1"/>
<path d="M17.6524 11.8456C17.6324 11.8456 17.6024 11.8456 17.5824 11.8456C14.4624 11.5356 11.9524 9.1656 11.4724 6.0656C11.4124 5.6556 11.6924 5.2756 12.1024 5.2056C12.5124 5.1456 12.8924 5.4256 12.9624 5.8356C13.3424 8.2556 15.3024 10.1156 17.7424 10.3556C18.1524 10.3956 18.4524 10.7656 18.4124 11.1756C18.3624 11.5556 18.0324 11.8456 17.6524 11.8456Z" fill="#5F33E1"/>
<path d="M21.3125 23.6455H3.3125C2.9025 23.6455 2.5625 23.3055 2.5625 22.8955C2.5625 22.4855 2.9025 22.1455 3.3125 22.1455H21.3125C21.7225 22.1455 22.0625 22.4855 22.0625 22.8955C22.0625 23.3055 21.7225 23.6455 21.3125 23.6455Z" fill="#5F33E1"/>
</svg>
