<svg width="25" height="25" viewBox="0 0 25 25" fill="none" xmlns="http://www.w3.org/2000/svg">
<path d="M5.4624 23.1455C5.0524 23.1455 4.7124 22.8055 4.7124 22.3955V2.39551C4.7124 1.98551 5.0524 1.64551 5.4624 1.64551C5.8724 1.64551 6.2124 1.98551 6.2124 2.39551V22.3955C6.2124 22.8055 5.8724 23.1455 5.4624 23.1455Z" fill="#5F33E1"/>
<path d="M16.6624 17.1455H5.4624C5.0524 17.1455 4.7124 16.8055 4.7124 16.3955C4.7124 15.9855 5.0524 15.6455 5.4624 15.6455H16.6624C17.7524 15.6455 18.2624 15.3555 18.3624 15.1055C18.4624 14.8555 18.3124 14.2955 17.5324 13.5255L16.3324 12.3255C15.8424 11.8955 15.5424 11.2455 15.5124 10.5255C15.4824 9.76551 15.7824 9.01551 16.3324 8.46551L17.5324 7.26551C18.2724 6.52551 18.5024 5.92551 18.3924 5.66551C18.2824 5.40551 17.7124 5.14551 16.6624 5.14551H5.4624C5.0424 5.14551 4.7124 4.80551 4.7124 4.39551C4.7124 3.98551 5.0524 3.64551 5.4624 3.64551H16.6624C18.8524 3.64551 19.5524 4.55551 19.7824 5.09551C20.0024 5.63551 20.1524 6.77551 18.5924 8.33551L17.3924 9.53551C17.1424 9.78551 17.0024 10.1355 17.0124 10.4855C17.0224 10.7855 17.1424 11.0555 17.3524 11.2455L18.5924 12.4755C20.1224 14.0055 19.9724 15.1455 19.7524 15.6955C19.5224 16.2255 18.8124 17.1455 16.6624 17.1455Z" fill="#5F33E1"/>
</svg>
