<svg width="25" height="25" viewBox="0 0 25 25" fill="none" xmlns="http://www.w3.org/2000/svg">
<path d="M15.7937 23.073H15.6637C11.2237 23.073 9.08373 21.323 8.71373 17.403C8.67373 16.993 8.97373 16.623 9.39373 16.583C9.79373 16.543 10.1737 16.853 10.2137 17.263C10.5037 20.403 11.9837 21.573 15.6737 21.573H15.8037C19.8737 21.573 21.3137 20.133 21.3137 16.063V9.54296C21.3137 5.47296 19.8737 4.03296 15.8037 4.03296H15.6737C11.9637 4.03296 10.4837 5.22296 10.2137 8.42296C10.1637 8.83296 9.81373 9.14296 9.39373 9.10296C8.97373 9.07296 8.67373 8.70296 8.70373 8.29296C9.04373 4.31296 11.1937 2.53296 15.6637 2.53296H15.7937C20.7037 2.53296 22.8037 4.63296 22.8037 9.54296V16.063C22.8037 20.973 20.7037 23.073 15.7937 23.073Z" fill="#FF4949"/>
<path d="M15.5538 13.553H4.17383C3.76383 13.553 3.42383 13.213 3.42383 12.803C3.42383 12.393 3.76383 12.053 4.17383 12.053H15.5538C15.9638 12.053 16.3038 12.393 16.3038 12.803C16.3038 13.213 15.9638 13.553 15.5538 13.553Z" fill="#FF4949"/>
<path d="M6.40365 16.9031C6.21365 16.9031 6.02365 16.8331 5.87365 16.6831L2.52365 13.3331C2.23365 13.0431 2.23365 12.5631 2.52365 12.2731L5.87365 8.92307C6.16365 8.63307 6.64365 8.63307 6.93365 8.92307C7.22365 9.21307 7.22365 9.69307 6.93365 9.98307L4.11365 12.8031L6.93365 15.6231C7.22365 15.9131 7.22365 16.3931 6.93365 16.6831C6.79365 16.8331 6.59365 16.9031 6.40365 16.9031Z" fill="#FF4949"/>
</svg>
