<svg width="25" height="25" viewBox="0 0 25 25" fill="none" xmlns="http://www.w3.org/2000/svg">
<path d="M11.8125 22.6455C6.1625 22.6455 1.5625 18.0455 1.5625 12.3955C1.5625 6.74551 6.1625 2.14551 11.8125 2.14551C17.4625 2.14551 22.0625 6.74551 22.0625 12.3955C22.0625 18.0455 17.4625 22.6455 11.8125 22.6455ZM11.8125 3.64551C6.9825 3.64551 3.0625 7.57551 3.0625 12.3955C3.0625 17.2155 6.9825 21.1455 11.8125 21.1455C16.6425 21.1455 20.5625 17.2155 20.5625 12.3955C20.5625 7.57551 16.6425 3.64551 11.8125 3.64551Z" fill="#5F33E1"/>
<path d="M22.3124 23.6454C22.1224 23.6454 21.9324 23.5755 21.7824 23.4255L19.7824 21.4255C19.4924 21.1355 19.4924 20.6554 19.7824 20.3654C20.0724 20.0754 20.5524 20.0754 20.8424 20.3654L22.8424 22.3654C23.1324 22.6554 23.1324 23.1355 22.8424 23.4255C22.6924 23.5755 22.5024 23.6454 22.3124 23.6454Z" fill="#5F33E1"/>
</svg>
