<svg width="25" height="25" viewBox="0 0 25 25" fill="none" xmlns="http://www.w3.org/2000/svg">
<path d="M6.19706 22.6454C5.07706 22.6454 4.36706 22.2654 3.91706 21.8154C3.03706 20.9354 2.41706 19.0654 4.39706 15.0954L5.26706 13.3654C5.37706 13.1354 5.37706 12.6554 5.26706 12.4254L4.39706 10.6954C2.40706 6.72541 3.03706 4.84541 3.91706 3.97541C4.78706 3.09541 6.66706 2.46541 10.6271 4.45541L19.1871 8.73541C21.3171 9.79541 22.4871 11.2754 22.4871 12.8954C22.4871 14.5154 21.3171 15.9954 19.1971 17.0554L10.6371 21.3354C8.69706 22.3054 7.25706 22.6454 6.19706 22.6454ZM6.19706 4.64541C5.65706 4.64541 5.23706 4.77541 4.97706 5.03541C4.24706 5.75541 4.53706 7.62541 5.73706 10.0154L6.60706 11.7554C6.92706 12.4054 6.92706 13.3854 6.60706 14.0354L5.73706 15.7654C4.53706 18.1654 4.24706 20.0254 4.97706 20.7454C5.69706 21.4754 7.56706 21.1854 9.96706 19.9854L18.5271 15.7054C20.0971 14.9254 20.9871 13.8954 20.9871 12.8854C20.9871 11.8754 20.0871 10.8454 18.5171 10.0654L9.95706 5.79541C8.43706 5.03541 7.12706 4.64541 6.19706 4.64541Z" fill="#5F33E1"/>
<path d="M11.6271 13.6455H6.22705C5.81705 13.6455 5.47705 13.3055 5.47705 12.8955C5.47705 12.4855 5.81705 12.1455 6.22705 12.1455H11.6271C12.0371 12.1455 12.3771 12.4855 12.3771 12.8955C12.3771 13.3055 12.0371 13.6455 11.6271 13.6455Z" fill="#5F33E1"/>
</svg>
