<svg width="25" height="25" viewBox="0 0 25 25" fill="none" xmlns="http://www.w3.org/2000/svg">
<rect width="24" height="24" transform="translate(0.435547 0.163086)" fill="white"/>
<path d="M5.8455 21.913C4.7255 21.913 4.0155 21.533 3.5655 21.083C2.6855 20.203 2.0655 18.333 4.0455 14.363L4.9155 12.633C5.0255 12.403 5.0255 11.923 4.9155 11.693L4.0455 9.96299C2.0555 5.99299 2.6855 4.11299 3.5655 3.24299C4.4355 2.36299 6.3155 1.73299 10.2755 3.72299L18.8355 8.00299C20.9655 9.06299 22.1355 10.543 22.1355 12.163C22.1355 13.783 20.9655 15.263 18.8455 16.323L10.2855 20.603C8.3455 21.573 6.9055 21.913 5.8455 21.913ZM5.8455 3.91299C5.3055 3.91299 4.8855 4.04299 4.6255 4.30299C3.8955 5.02299 4.1855 6.89299 5.3855 9.28299L6.2555 11.023C6.5755 11.673 6.5755 12.653 6.2555 13.303L5.3855 15.033C4.1855 17.433 3.8955 19.293 4.6255 20.013C5.3455 20.743 7.2155 20.453 9.6155 19.253L18.1755 14.973C19.7455 14.193 20.6355 13.163 20.6355 12.153C20.6355 11.143 19.7355 10.113 18.1655 9.33299L9.6055 5.06299C8.0855 4.30299 6.7755 3.91299 5.8455 3.91299Z" fill="#5F33E1"/>
<path d="M11.2755 12.9131H5.87549C5.46549 12.9131 5.12549 12.5731 5.12549 12.1631C5.12549 11.7531 5.46549 11.4131 5.87549 11.4131H11.2755C11.6855 11.4131 12.0255 11.7531 12.0255 12.1631C12.0255 12.5731 11.6855 12.9131 11.2755 12.9131Z" fill="#5F33E1"/>
</svg>
