<svg width="25" height="25" viewBox="0 0 25 25" fill="none" xmlns="http://www.w3.org/2000/svg">
<path d="M12.3369 23.6455C7.09691 23.6455 2.83691 19.3855 2.83691 14.1455C2.83691 8.90551 7.09691 4.64551 12.3369 4.64551C17.5769 4.64551 21.8369 8.90551 21.8369 14.1455C21.8369 19.3855 17.5769 23.6455 12.3369 23.6455ZM12.3369 6.14551C7.92691 6.14551 4.33691 9.73551 4.33691 14.1455C4.33691 18.5555 7.92691 22.1455 12.3369 22.1455C16.7469 22.1455 20.3369 18.5555 20.3369 14.1455C20.3369 9.73551 16.7469 6.14551 12.3369 6.14551Z" fill="#5F33E1"/>
<path d="M12.3369 14.6455C11.9269 14.6455 11.5869 14.3055 11.5869 13.8955V8.89551C11.5869 8.48551 11.9269 8.14551 12.3369 8.14551C12.7469 8.14551 13.0869 8.48551 13.0869 8.89551V13.8955C13.0869 14.3055 12.7469 14.6455 12.3369 14.6455Z" fill="#5F33E1"/>
<path d="M15.3369 3.64551H9.33691C8.92691 3.64551 8.58691 3.30551 8.58691 2.89551C8.58691 2.48551 8.92691 2.14551 9.33691 2.14551H15.3369C15.7469 2.14551 16.0869 2.48551 16.0869 2.89551C16.0869 3.30551 15.7469 3.64551 15.3369 3.64551Z" fill="#5F33E1"/>
</svg>
