<svg width="25" height="25" viewBox="0 0 25 25" fill="none" xmlns="http://www.w3.org/2000/svg">
<path d="M21.7126 7.37548C21.6926 7.37548 21.6626 7.37548 21.6326 7.37548C16.3426 6.84548 11.0626 6.64548 5.83256 7.17548L3.79256 7.37548C3.37256 7.41548 3.00256 7.11548 2.96256 6.69548C2.92256 6.27548 3.22256 5.91548 3.63256 5.87548L5.67256 5.67548C10.9926 5.13548 16.3826 5.34548 21.7826 5.87548C22.1926 5.91548 22.4926 6.28548 22.4526 6.69548C22.4226 7.08548 22.0926 7.37548 21.7126 7.37548Z" fill="#FF4949"/>
<path d="M9.21217 6.36551C9.17217 6.36551 9.13217 6.36551 9.08217 6.35551C8.68217 6.28551 8.40217 5.89551 8.47217 5.49551L8.69217 4.18551C8.85217 3.22551 9.07217 1.89551 11.4022 1.89551H14.0222C16.3622 1.89551 16.5822 3.27551 16.7322 4.19551L16.9522 5.49551C17.0222 5.90551 16.7422 6.29551 16.3422 6.35551C15.9322 6.42551 15.5422 6.14551 15.4822 5.74551L15.2622 4.44551C15.1222 3.57551 15.0922 3.40551 14.0322 3.40551H11.4122C10.3522 3.40551 10.3322 3.54551 10.1822 4.43551L9.95217 5.73551C9.89217 6.10551 9.57217 6.36551 9.21217 6.36551Z" fill="#FF4949"/>
<path d="M15.9223 23.3956H9.5023C6.0123 23.3956 5.8723 21.4656 5.7623 19.9056L5.1123 9.83558C5.0823 9.42558 5.4023 9.06558 5.8123 9.03558C6.2323 9.01558 6.5823 9.32558 6.6123 9.73558L7.2623 19.8056C7.3723 21.3256 7.4123 21.8956 9.5023 21.8956H15.9223C18.0223 21.8956 18.0623 21.3256 18.1623 19.8056L18.8123 9.73558C18.8423 9.32558 19.2023 9.01558 19.6123 9.03558C20.0223 9.06558 20.3423 9.41558 20.3123 9.83558L19.6623 19.9056C19.5523 21.4656 19.4123 23.3956 15.9223 23.3956Z" fill="#FF4949"/>
<path d="M14.3725 17.8955H11.0425C10.6325 17.8955 10.2925 17.5555 10.2925 17.1455C10.2925 16.7355 10.6325 16.3955 11.0425 16.3955H14.3725C14.7825 16.3955 15.1225 16.7355 15.1225 17.1455C15.1225 17.5555 14.7825 17.8955 14.3725 17.8955Z" fill="#FF4949"/>
<path d="M15.2124 13.8955H10.2124C9.8024 13.8955 9.4624 13.5555 9.4624 13.1455C9.4624 12.7355 9.8024 12.3955 10.2124 12.3955H15.2124C15.6224 12.3955 15.9624 12.7355 15.9624 13.1455C15.9624 13.5555 15.6224 13.8955 15.2124 13.8955Z" fill="#FF4949"/>
</svg>
